Coordinates
version=1
nRows=17
nColumns=63
inDegrees=yes

Units are S.I. units (second, meters, Newtons, ...)
If the header above contains a line with 'inDegrees', this indicates whether rotational values are in degrees (yes) or radians (no).

endheader
time	pelvis_tilt	pelvis_list	pelvis_rotation	pelvis_tx	pelvis_ty	pelvis_tz	hip_flexion_r	hip_adduction_r	hip_rotation_r	knee_angle_r	knee_angle_r_beta	ankle_angle_r	subtalar_angle_r	mtp_angle_r	hip_flexion_l	hip_adduction_l	hip_rotation_l	knee_angle_l	knee_angle_l_beta	ankle_angle_l	subtalar_angle_l	mtp_angle_l	L5_S1_Flex_Ext	L5_S1_Lat_Bending	L5_S1_axial_rotation	L4_L5_Flex_Ext	L4_L5_Lat_Bending	L4_L5_axial_rotation	L3_L4_Flex_Ext	L3_L4_Lat_Bending	L3_L4_axial_rotation	L2_L3_Flex_Ext	L2_L3_Lat_Bending	L2_L3_axial_rotation	L1_L2_Flex_Ext	L1_L2_Lat_Bending	L1_L2_axial_rotation	L1_T12_Flex_Ext	L1_T12_Lat_Bending	L1_T12_axial_rotation	Abs_r3	Abs_r2	Abs_r1	Abs_t1	Abs_t2	neck_flexion	neck_bending	neck_rotation	arm_flex_r	arm_add_r	arm_rot_r	elbow_flex_r	pro_sup_r	wrist_flex_r	wrist_dev_r	arm_flex_l	arm_add_l	arm_rot_l	elbow_flex_l	pro_sup_l	wrist_flex_l	wrist_dev_l
6.762712	3.495230	-11.296325	103.209371	0.115344	0.872819	0.472828	18.156709	-0.531082	-9.164429	24.299694	0.424110	38.582434	-3.142940	0.000000	13.543485	-0.689190	17.310539	10.159795	0.177322	30.957617	-1.857503	0.000000	-0.114858	-0.388398	2.402044	-0.213302	-0.516569	2.552172	-0.188700	-0.944350	2.552172	-0.131271	-0.944350	2.101789	-0.106657	-0.792021	1.951661	-0.065630	-0.601628	1.801533	-0.820416	-4.393633	13.359450	0.000000	0.000000	22.700997	3.852205	-0.077827	-4.880908	-12.778510	-12.015070	43.871667	87.082886	-20.094057	7.787838	10.126758	-16.657266	119.003128	13.328602	19.372516	-6.021148	-5.529635
6.779661	3.607442	-11.394262	103.371814	0.115251	0.872883	0.473644	18.365723	-0.504773	-9.383517	24.320228	0.424468	38.806541	-2.934604	0.000000	13.841371	-0.772509	16.394049	10.294735	0.179677	31.136187	-0.701734	0.000000	-0.111019	-0.378801	2.389731	-0.206174	-0.503805	2.539089	-0.182394	-0.921016	2.539089	-0.126884	-0.921016	2.091015	-0.103093	-0.772450	1.941656	-0.063437	-0.586762	1.792298	-0.793001	-4.285070	13.290967	0.000000	0.000000	22.791729	3.838254	-0.033614	-4.943170	-12.803537	-12.054448	43.968357	87.055179	-20.543385	7.129980	10.173957	-16.625626	117.763987	13.234092	20.310723	-5.961272	-5.546857
6.796610	3.693291	-11.487158	103.534558	0.115219	0.872946	0.474334	18.541886	-0.484704	-9.518308	24.317834	0.424426	38.960430	-2.856545	0.000000	14.096209	-0.831098	15.712027	10.383786	0.181231	31.266601	0.221953	0.000000	-0.108238	-0.373419	2.372393	-0.201008	-0.496648	2.520667	-0.177824	-0.907932	2.520667	-0.123705	-0.907932	2.075844	-0.100509	-0.761477	1.927569	-0.061847	-0.578427	1.779294	-0.773131	-4.224195	13.194536	0.000000	0.000000	22.873191	3.856321	0.017711	-4.958035	-12.800876	-12.078544	44.009320	87.026388	-20.903203	6.589491	10.157173	-16.636955	116.244780	13.144053	21.262790	-5.880758	-5.509335
6.813559	3.741133	-11.575204	103.680019	0.115269	0.873004	0.474873	18.688473	-0.478173	-9.548956	24.304178	0.424188	39.042570	-2.918191	0.000000	14.300175	-0.855895	15.286071	10.426717	0.181981	31.334551	0.866873	0.000000	-0.106451	-0.373427	2.350564	-0.197691	-0.496658	2.497474	-0.174889	-0.907951	2.497474	-0.121663	-0.907951	2.056744	-0.098851	-0.761493	1.909833	-0.060826	-0.578439	1.762923	-0.760371	-4.224284	13.073132	0.000000	0.000000	22.941683	3.907589	0.084039	-4.927015	-12.767386	-12.083305	44.009513	86.992884	-21.151487	6.224798	10.133282	-16.688187	115.029877	13.096624	21.745136	-5.808137	-5.469352
6.830508	3.740928	-11.663558	103.772818	0.115449	0.873047	0.475256	18.821509	-0.484771	-9.436133	24.296018	0.424046	39.058518	-3.127402	0.000000	14.454289	-0.846363	15.035195	10.426140	0.181970	31.354087	1.287972	0.000000	-0.105216	-0.380095	2.328704	-0.195396	-0.505526	2.474248	-0.172859	-0.924162	2.474248	-0.120251	-0.924162	2.037616	-0.097703	-0.775089	1.892072	-0.060120	-0.588767	1.746528	-0.751546	-4.299708	12.951555	0.000000	0.000000	23.003173	3.997097	0.163503	-4.854753	-12.698302	-12.080179	43.986153	86.959604	-21.255115	6.072614	10.134502	-16.772428	114.456003	13.104679	21.551621	-5.747262	-5.465112
6.847458	3.692788	-11.751622	103.800062	0.115759	0.873072	0.475480	18.944455	-0.505588	-9.191766	24.301310	0.424138	39.024974	-3.445380	0.000000	14.552662	-0.800090	15.009989	10.377974	0.181130	31.305113	1.376325	0.000000	-0.104445	-0.393243	2.306934	-0.193965	-0.523014	2.451117	-0.171593	-0.956132	2.451117	-0.119370	-0.956132	2.018567	-0.096988	-0.801902	1.874384	-0.059680	-0.609134	1.730201	-0.746041	-4.448449	12.830475	0.000000	0.000000	23.063877	4.136242	0.273037	-4.739938	-12.594947	-12.076095	43.944782	86.934282	-21.188226	6.137949	10.100859	-16.895900	114.064507	13.141702	21.140216	-5.719973	-5.482218
6.864407	3.594193	-11.845366	103.754809	0.116201	0.873062	0.475578	19.071716	-0.549347	-8.845498	24.336557	0.424753	38.967631	-3.814642	0.000000	14.611171	-0.718547	15.094270	10.298905	0.179750	31.227735	1.259719	0.000000	-0.103480	-0.413113	2.286738	-0.192172	-0.549440	2.429659	-0.170007	-1.004442	2.429659	-0.118267	-1.004442	2.000896	-0.096091	-0.842419	1.857974	-0.059128	-0.639912	1.715053	-0.739145	-4.673214	12.718150	0.000000	0.000000	23.128476	4.336247	0.441350	-4.588830	-12.463622	-12.066407	43.894054	86.907269	-20.965864	6.386795	10.029130	-17.046739	113.876809	13.191192	20.470318	-5.700026	-5.545095
6.881356	3.455925	-11.944378	103.640897	0.116767	0.873014	0.475593	19.209496	-0.616114	-8.460153	24.408355	0.426006	38.906465	-4.155571	0.000000	14.654037	-0.619238	15.106730	10.223613	0.178436	31.197036	1.174139	0.000000	-0.102619	-0.438765	2.270861	-0.190573	-0.583557	2.412790	-0.168592	-1.066813	2.412790	-0.117283	-1.066813	1.987003	-0.095292	-0.894729	1.845074	-0.058636	-0.679647	1.703146	-0.732995	-4.963395	12.629847	0.000000	0.000000	23.212115	4.605730	0.654250	-4.409880	-12.300916	-12.100074	43.847777	86.888507	-20.581325	6.801027	9.909051	-17.219543	113.775287	13.233880	19.611486	-5.707649	-5.660346
6.898305	3.269632	-12.043715	103.444961	0.117479	0.872934	0.475509	19.353608	-0.703487	-7.995007	24.518201	0.427923	38.844952	-4.503219	0.000000	14.663696	-0.499189	15.053314	10.134224	0.176876	31.188627	1.078177	0.000000	-0.102958	-0.471359	2.265169	-0.191203	-0.626908	2.406742	-0.169149	-1.146063	2.406742	-0.117670	-1.146063	1.982023	-0.095607	-0.961196	1.840450	-0.058830	-0.730136	1.698877	-0.735416	-5.332111	12.598192	0.000000	0.000000	23.318874	4.952342	0.908574	-4.222530	-12.109112	-12.172491	43.811945	86.832082	-20.067756	7.274411	9.741570	-17.411880	113.698329	13.245023	18.628249	-5.701319	-5.823525
6.915254	3.056781	-12.138207	103.217982	0.118248	0.872827	0.475345	19.490843	-0.812145	-7.538540	24.649254	0.430211	38.803428	-4.796790	0.000000	14.647495	-0.359719	15.059566	10.044087	0.175302	31.163905	0.848136	0.000000	-0.104366	-0.507977	2.263567	-0.193818	-0.675609	2.405040	-0.171463	-1.235094	2.405040	-0.119280	-1.235094	1.980621	-0.096914	-1.035866	1.839148	-0.059635	-0.786856	1.697676	-0.745476	-5.746334	12.589283	0.000000	0.000000	23.435572	5.389484	1.233116	-4.041458	-11.890325	-12.314017	43.810319	86.736898	-19.459020	7.812460	9.519325	-17.601969	113.586547	13.193256	17.585862	-5.679839	-6.019822
6.932203	2.832248	-12.218018	102.953077	0.119055	0.872708	0.475065	19.606556	-0.917510	-7.053746	24.783876	0.432560	38.775647	-5.069125	0.000000	14.593720	-0.219237	15.092200	9.951760	0.173691	31.123340	0.522630	0.000000	-0.106849	-0.545960	2.269663	-0.198430	-0.726127	2.411517	-0.175543	-1.327447	2.411517	-0.122118	-1.327447	1.985955	-0.099220	-1.113322	1.844101	-0.061054	-0.845692	1.702247	-0.763213	-6.176010	12.623184	0.000000	0.000000	23.543724	5.889415	1.638660	-3.887111	-11.657251	-12.516734	43.854369	86.607039	-18.804456	8.365164	9.245382	-17.781756	113.355085	13.076423	16.651424	-5.651131	-6.245553
6.949153	2.578805	-12.288901	102.611596	0.119952	0.872609	0.474710	19.717366	-1.029297	-6.517304	24.938954	0.435267	38.753606	-5.325953	0.000000	14.505404	-0.076887	14.982834	9.857738	0.172050	31.070096	0.282089	0.000000	-0.111460	-0.587269	2.297052	-0.206993	-0.781068	2.440618	-0.183118	-1.427887	2.440618	-0.127388	-1.427887	2.009921	-0.103502	-1.197560	1.866355	-0.063688	-0.909680	1.722789	-0.796149	-6.643308	12.775514	0.000000	0.000000	23.639390	6.434897	2.073159	-3.768980	-11.385168	-12.854352	43.932065	86.438859	-18.095310	8.845341	8.993188	-17.943579	113.134503	12.900896	15.865928	-5.571413	-6.470055
6.966102	2.362189	-12.338631	102.331243	0.120693	0.872540	0.474297	19.781339	-1.123203	-6.078946	25.053867	0.437272	38.724363	-5.536749	0.000000	14.411186	0.045592	14.944987	9.797999	0.171007	30.992973	0.015821	0.000000	-0.116251	-0.622080	2.317953	-0.215890	-0.827367	2.462825	-0.190989	-1.512526	2.462825	-0.132863	-1.512526	2.028208	-0.107951	-1.268546	1.883336	-0.066426	-0.963602	1.738464	-0.830370	-7.037097	12.891756	0.000000	0.000000	23.686692	6.972980	2.603205	-3.687894	-11.143371	-13.182913	44.043678	86.264140	-17.491988	9.268610	8.752477	-18.051252	112.915829	12.685585	15.191170	-5.514265	-6.722316
6.983051	2.197696	-12.353459	102.074946	0.121280	0.872533	0.473818	19.785951	-1.167258	-5.682692	25.118340	0.438398	38.656264	-5.729852	0.000000	14.282229	0.126841	15.007132	9.741261	0.170017	30.874009	-0.350672	0.000000	-0.122443	-0.647177	2.342188	-0.227388	-0.860745	2.488575	-0.201161	-1.573545	2.488575	-0.139940	-1.573545	2.049414	-0.113700	-1.319723	1.903028	-0.069964	-1.002477	1.756641	-0.874597	-7.320991	13.026546	0.000000	0.000000	23.689031	7.451934	3.183640	-3.659229	-10.943002	-13.515766	44.190018	86.102534	-17.017781	9.597466	8.556933	-18.098063	112.629428	12.446077	14.913085	-5.457069	-7.029394
7.000000	2.106212	-12.333262	101.894673	0.121639	0.872593	0.473302	19.725894	-1.160488	-5.410266	25.121144	0.438447	38.554827	-5.866588	0.000000	14.149782	0.152398	15.075623	9.721529	0.169673	30.756671	-0.635753	0.000000	-0.129200	-0.659505	2.358094	-0.239937	-0.877141	2.505475	-0.212262	-1.603520	2.505475	-0.147663	-1.603520	2.063332	-0.119975	-1.344862	1.915952	-0.073825	-1.021573	1.768571	-0.922862	-7.460448	13.115012	0.000000	0.000000	23.638260	7.861890	3.848701	-3.670833	-10.806087	-13.805468	44.354913	85.992798	-16.674552	9.838550	8.397510	-18.082010	112.157633	12.219008	15.003155	-5.470070	-7.415969
7.016949	2.093723	-12.269123	101.816827	0.121734	0.872729	0.472745	19.583985	-1.113266	-5.345962	25.053759	0.437271	38.444545	-5.856081	0.000000	13.996321	0.126062	15.265197	9.706180	0.169405	30.616387	-0.962378	0.000000	-0.136995	-0.658423	2.361403	-0.254413	-0.875703	2.508990	-0.225069	-1.600890	2.508990	-0.156572	-1.600890	2.066227	-0.127214	-1.342656	1.918640	-0.078279	-1.019897	1.771052	-0.978541	-7.448214	13.133412	0.000000	0.000000	23.536957	8.171176	4.535646	-3.715089	-10.738416	-14.016882	44.509245	85.871221	-16.484770	9.950218	8.271661	-18.012510	111.488088	12.023445	15.464983	-5.562107	-7.900350
7.033898	2.157584	-12.167459	101.838369	0.121600	0.872917	0.472175	19.374135	-1.028540	-5.482993	24.924896	0.435022	38.342136	-5.694153	0.000000	13.837990	0.048691	15.525023	9.703923	0.169365	30.483314	-1.269552	0.000000	-0.145024	-0.645142	2.354008	-0.269325	-0.858039	2.501133	-0.238260	-1.568599	2.501133	-0.165748	-1.568599	2.059757	-0.134670	-1.315574	1.912631	-0.082867	-0.999325	1.765506	-1.035894	-7.297978	13.092284	0.000000	0.000000	23.386694	8.403104	5.225834	-3.784217	-10.735686	-14.154475	44.648828	85.788295	-16.438973	9.991468	8.169172	-17.902060	110.556841	11.869765	16.266766	-5.736726	-8.402915
